<?xml version="1.0" encoding="UTF-8" standalone="no"?>
<svg
   xmlns:ns="http://ns.adobe.com/SaveForWeb/1.0/"
   xmlns:dc="http://purl.org/dc/elements/1.1/"
   xmlns:cc="http://web.resource.org/cc/"
   xmlns:rdf="http://www.w3.org/1999/02/22-rdf-syntax-ns#"
   xmlns:svg="http://www.w3.org/2000/svg"
   xmlns="http://www.w3.org/2000/svg"
   xmlns:xlink="http://www.w3.org/1999/xlink"
   xmlns:sodipodi="http://sodipodi.sourceforge.net/DTD/sodipodi-0.dtd"
   xmlns:inkscape="http://www.inkscape.org/namespaces/inkscape"
   version="1.0"
   id="Livello_1"
   width="128"
   height="100"
   viewBox="0 0 124.176 66.475"
   overflow="visible"
   enable-background="new 0 0 124.176 66.475"
   xml:space="preserve"
   sodipodi:version="0.32"
   inkscape:version="0.45.1"
   sodipodi:docname="id3encodingconverter_about.svg"
   sodipodi:docbase="/home/christoph/dokumente/id3encodingconverter"
   inkscape:output_extension="org.inkscape.output.svg.inkscape"
   inkscape:export-filename="/home/christoph/dokumente/id3encodingconverter/id3encodingconverter_about.png"
   inkscape:export-xdpi="90"
   inkscape:export-ydpi="90"><defs
   id="defs29"><linearGradient
   id="linearGradient3291"
   inkscape:collect="always"><stop
     id="stop3293"
     offset="0"
     style="stop-color:#000000;stop-opacity:1;" /><stop
     id="stop3295"
     offset="1"
     style="stop-color:#000000;stop-opacity:0;" /></linearGradient><radialGradient
   inkscape:collect="always"
   xlink:href="#linearGradient3291"
   id="radialGradient3336"
   gradientUnits="userSpaceOnUse"
   gradientTransform="matrix(1,0,0,0.197802,0,92.82166)"
   cx="63.912209"
   cy="115.70919"
   fx="63.912209"
   fy="115.7093"
   r="63.912209" />
	<linearGradient
   y2="0.00048828119"
   x2="22.481001"
   y1="65.662102"
   x1="22.481001"
   gradientUnits="userSpaceOnUse"
   id="XMLID_4_">
		<stop
   id="stop8"
   style="stop-color:#2E3436"
   offset="0" />
		<stop
   id="stop10"
   style="stop-color:#000000"
   offset="1" />
	</linearGradient>
	
	<linearGradient
   y2="15.8804"
   x2="64.6689"
   y1="65.662102"
   x1="64.6689"
   gradientUnits="userSpaceOnUse"
   id="XMLID_5_"
   gradientTransform="matrix(1,0,0,1.0133482,0,1.6235306)">
		<stop
   id="stop15"
   style="stop-color:#2E3436"
   offset="0" />
		<stop
   id="stop17"
   style="stop-color:#000000"
   offset="1" />
	</linearGradient>
	
	<linearGradient
   y2="4.2846999"
   x2="104.2773"
   y1="66.474602"
   x1="104.2773"
   gradientUnits="userSpaceOnUse"
   id="XMLID_6_"
   gradientTransform="translate(0,1.687)">
		<stop
   id="stop22"
   style="stop-color:#2E3436"
   offset="0" />
		<stop
   id="stop24"
   style="stop-color:#000000"
   offset="1" />
	</linearGradient>
	
<radialGradient
   inkscape:collect="always"
   xlink:href="#linearGradient3291"
   id="radialGradient4261"
   gradientUnits="userSpaceOnUse"
   gradientTransform="matrix(1,0,0,0.197802,0,92.82166)"
   cx="63.912209"
   cy="115.70919"
   fx="63.912209"
   fy="115.7093"
   r="63.912209" /><radialGradient
   inkscape:collect="always"
   xlink:href="#linearGradient3291"
   id="radialGradient4265"
   gradientUnits="userSpaceOnUse"
   gradientTransform="matrix(1,0,0,0.197802,0,92.82166)"
   cx="63.912209"
   cy="115.70919"
   fx="63.912209"
   fy="115.7093"
   r="63.912209" /><radialGradient
   inkscape:collect="always"
   xlink:href="#linearGradient3291"
   id="radialGradient4268"
   gradientUnits="userSpaceOnUse"
   gradientTransform="matrix(1,0,0,0.197802,0,92.82166)"
   cx="63.912209"
   cy="115.70919"
   fx="63.912209"
   fy="115.7093"
   r="63.912209" /><linearGradient
   inkscape:collect="always"
   xlink:href="#XMLID_6_"
   id="linearGradient3173"
   x1="89.51284"
   y1="41.795521"
   x2="123.039"
   y2="41.795521"
   gradientUnits="userSpaceOnUse"
   gradientTransform="translate(-3.8805,0)" /><linearGradient
   inkscape:collect="always"
   xlink:href="#XMLID_6_"
   id="linearGradient3175"
   x1="40.745247"
   y1="41.795521"
   x2="83.548225"
   y2="41.795521"
   gradientUnits="userSpaceOnUse"
   gradientTransform="translate(-3.8805,0)" /><linearGradient
   inkscape:collect="always"
   xlink:href="#XMLID_6_"
   id="linearGradient3177"
   x1="19.4025"
   y1="41.795521"
   x2="26.291904"
   y2="41.795521"
   gradientUnits="userSpaceOnUse"
   gradientTransform="translate(-4.9453639,0)" /><linearGradient
   inkscape:collect="always"
   xlink:href="#XMLID_4_"
   id="linearGradient2180"
   gradientUnits="userSpaceOnUse"
   gradientTransform="matrix(1.1667223,0,0,-1.1875443,-100.43961,47.542324)"
   x1="38.609329"
   y1="0.79894531"
   x2="38.366798"
   y2="50.62952" /><linearGradient
   inkscape:collect="always"
   xlink:href="#XMLID_4_"
   id="linearGradient4203"
   gradientUnits="userSpaceOnUse"
   gradientTransform="matrix(1.1696361,0,0,-1.1845859,-100.69045,47.38522)"
   x1="38.609329"
   y1="0.79894531"
   x2="38.366798"
   y2="50.62952" /><linearGradient
   inkscape:collect="always"
   xlink:href="#XMLID_4_"
   id="linearGradient4205"
   gradientUnits="userSpaceOnUse"
   gradientTransform="matrix(1.1667223,0,0,-1.1875443,-100.43961,47.542324)"
   x1="38.609329"
   y1="0.79894531"
   x2="38.366798"
   y2="50.62952" /><radialGradient
   inkscape:collect="always"
   xlink:href="#linearGradient3291"
   id="radialGradient4217"
   gradientUnits="userSpaceOnUse"
   gradientTransform="matrix(1,0,0,0.197802,0,92.82166)"
   cx="63.912209"
   cy="115.70919"
   fx="63.912209"
   fy="115.7093"
   r="63.912209" /><linearGradient
   inkscape:collect="always"
   xlink:href="#XMLID_4_"
   id="linearGradient4219"
   gradientUnits="userSpaceOnUse"
   gradientTransform="matrix(1.1696361,0,0,-1.1845859,-100.69045,47.38522)"
   x1="38.609329"
   y1="0.79894531"
   x2="38.366798"
   y2="50.62952" /><linearGradient
   inkscape:collect="always"
   xlink:href="#XMLID_4_"
   id="linearGradient4221"
   gradientUnits="userSpaceOnUse"
   gradientTransform="matrix(1.1667223,0,0,-1.1875443,-100.43961,47.542324)"
   x1="38.609329"
   y1="0.79894531"
   x2="38.366798"
   y2="50.62952" /><linearGradient
   inkscape:collect="always"
   xlink:href="#XMLID_4_"
   id="linearGradient4223"
   gradientUnits="userSpaceOnUse"
   gradientTransform="matrix(1.1667223,0,0,-1.1875443,-100.43961,47.542324)"
   x1="38.609329"
   y1="0.79894531"
   x2="38.366798"
   y2="50.62952" /></defs><sodipodi:namedview
   inkscape:window-height="694"
   inkscape:window-width="1016"
   inkscape:pageshadow="2"
   inkscape:pageopacity="0.0"
   guidetolerance="10.0"
   gridtolerance="10.0"
   objecttolerance="10.0"
   borderopacity="1.0"
   bordercolor="#666666"
   pagecolor="#ffffff"
   id="base"
   width="156px"
   height="100px"
   borderlayer="false"
   inkscape:showpageshadow="false"
   showgrid="true"
   gridspacingx="4px"
   gridspacingy="4px"
   gridempspacing="0"
   inkscape:zoom="2.8284271"
   inkscape:cx="76.311177"
   inkscape:cy="60.313252"
   inkscape:window-x="0"
   inkscape:window-y="18"
   inkscape:current-layer="Livello_1" />
<metadata
   id="metadata3">
	<ns:sfw>
		<ns:slices />
		<ns:sliceSourceBounds
   x="1.912"
   y="30.763"
   height="66.475"
   width="124.176"
   bottomLeftOrigin="true" />
	</ns:sfw>
<rdf:RDF><cc:Work
     rdf:about=""><dc:format>image/svg+xml</dc:format><dc:type
       rdf:resource="http://purl.org/dc/dcmitype/StillImage" /></cc:Work></rdf:RDF></metadata>

<g
   id="g4211"
   transform="translate(0,-1.2854365)"><path
     transform="matrix(0.971458,0,0,0.3981189,-2.6300491e-5,28.704475)"
     d="M 127.82442 115.70919 A 63.912209 12.641975 0 1 1  0,115.70919 A 63.912209 12.641975 0 1 1  127.82442 115.70919 z"
     sodipodi:ry="12.641975"
     sodipodi:rx="63.912209"
     sodipodi:cy="115.70919"
     sodipodi:cx="63.912209"
     id="path1563"
     style="opacity:0.38139535;fill:url(#radialGradient4217);fill-opacity:1;fill-rule:nonzero;stroke:none;stroke-width:0;stroke-linecap:round;stroke-linejoin:round;stroke-miterlimit:4;stroke-dasharray:none;stroke-dashoffset:4;stroke-opacity:1"
     sodipodi:type="arc" /><path
     id="text2190"
     d="M 110.75241,17.764839 C 114.60855,18.589296 117.61371,20.304631 119.7679,22.91085 C 121.94859,25.517124 123.03896,28.735039 123.03901,32.564608 C 123.03896,38.441976 121.01778,42.989609 116.97549,46.207522 C 112.93311,49.425441 107.18873,51.0344 99.742339,51.034401 C 97.242442,51.0344 94.662791,50.781752 92.00337,50.27646 C 89.370516,49.797762 86.644596,49.066418 83.825601,48.082426 L 83.825601,40.30357 C 86.059521,41.606703 88.506199,42.590694 91.165648,43.255546 C 93.82507,43.920412 96.604179,44.252841 99.50299,44.252835 C 104.5559,44.252841 108.39877,43.255553 111.03164,41.260968 C 113.69104,39.2664 115.02077,36.367617 115.0208,32.564608 C 115.02077,29.054171 113.78413,26.314954 111.31088,24.346947 C 108.86418,22.352395 105.44679,21.355108 101.05875,21.35508 L 94.117623,21.35508 L 94.117623,14.73308 L 101.37789,14.73308 C 105.34042,14.733115 108.37218,13.948581 110.47317,12.379479 C 112.57409,10.783856 113.62456,8.496741 113.62459,5.51813 C 113.62456,2.459825 112.53419,0.119522 110.35348,-1.502785 C 108.19931,-3.151583 105.10108,-3.976007 101.05875,-3.976061 C 98.851401,-3.976007 96.484504,-3.736658 93.958057,-3.258013 C 91.431577,-2.779262 88.652469,-2.034621 85.620721,-1.024086 L 85.620721,-8.204567 C 88.679064,-9.055528 91.537956,-9.693792 94.197407,-10.119362 C 96.883419,-10.544811 99.409886,-10.757566 101.7768,-10.757627 C 107.89348,-10.757566 112.73365,-9.361363 116.29733,-6.5690133 C 119.86093,-3.803145 121.64276,-0.05334 121.6428,4.680407 C 121.64276,7.978151 120.69867,10.770558 118.81049,13.057635 C 116.92225,15.31819 114.23623,16.887258 110.75241,17.764839"
     style="fill:url(#linearGradient4219);fill-opacity:1" /><path
     id="text2232"
     d="M 1.9402485,-9.07029 L 6.3289677,-9.07029 C 6.6017093,-7.2013051 7.3331618,-5.7933816 8.5233273,-4.8465155 C 9.7382767,-3.9244564 11.424337,-3.463455 13.581512,-3.463509 C 15.713872,-3.463455 17.375136,-3.9244564 18.565312,-4.8465155 C 19.755456,-5.7684626 20.511704,-7.1763861 20.834057,-9.07029 L 25.222776,-9.07029 C 24.974803,-5.5068131 23.871426,-2.828021 21.91264,-1.033905 C 19.953816,0.760315 17.176776,1.6574 13.581512,1.65735 C 9.9862272,1.6574 7.2091868,0.760315 5.2503842,-1.033905 C 3.2915769,-2.828021 2.1881995,-5.5068131 1.9402485,-9.07029 M 10.159799,9.170436 L 17.003226,9.170436 L 17.003226,51.034398 L 10.159799,51.034398 L 10.159799,9.170436 M 13.581512,8.161216 L 13.581512,8.161216"
     style="fill:url(#linearGradient4221);fill-opacity:1" /><path
     id="text2236"
     d="M 37.243793,-2.005746 L 37.243793,-8.210583 L 68.671485,-8.210583 L 68.671485,49.950422 L 61.828058,49.950422 L 61.828058,43.670828 C 60.389914,46.162734 58.567481,48.019199 56.360755,49.24023 C 54.178767,50.436343 51.550497,51.034399 48.475938,51.0344 C 43.442533,51.034399 39.33896,49.01596 36.165209,44.979077 C 33.016236,40.942203 31.441753,35.634457 31.441757,29.055819 C 31.441753,22.477224 33.016236,17.169477 36.165209,13.132563 C 39.33896,9.095721 43.442533,7.077282 48.475938,7.07724 C 51.550497,7.077282 54.178767,7.687798 56.360755,8.908787 C 58.567481,10.10494 60.389914,11.948947 61.828058,14.440812 L 61.828058,-2.043124 L 37.243793,-2.005746 M 38.508338,29.055819 C 38.508327,34.114397 39.53732,38.088978 41.595319,40.979573 C 43.678084,43.845267 46.52951,45.27811 50.149602,45.278105 C 53.76965,45.27811 56.621074,43.845267 58.703886,40.979573 C 60.786634,38.088978 61.828024,34.114397 61.828058,29.055819 C 61.828024,23.997284 60.786634,20.035162 58.703886,17.169444 C 56.621074,14.278873 53.76965,12.833571 50.149602,12.833534 C 46.52951,12.833571 43.678084,14.278873 41.595319,17.169444 C 39.53732,20.035162 38.508327,23.997284 38.508338,29.055819"
     style="fill:url(#linearGradient4223);fill-opacity:1" /></g><text
   xml:space="preserve"
   style="font-size:12px;font-style:normal;font-weight:normal;fill:#000000;fill-opacity:1;stroke:none;stroke-width:1px;stroke-linecap:butt;stroke-linejoin:miter;stroke-opacity:1;font-family:Bitstream Vera Sans"
   x="-152.30963"
   y="-12.358376"
   id="text2240"><tspan
     sodipodi:role="line"
     id="tspan2242"
     x="-152.30963"
     y="-12.358376"></tspan></text>
</svg>